<svg width="24" height="24" viewBox="0 0 177 30" fill="none" xmlns="http://www.w3.org/2000/svg" aria-label="" alt="" class="w-[140px] shrink-0" data-comp="gt-icon" style="color:white;font-size:24px;" iconcolor="white"><g clip-path="url(#clip0_826_39511)"><path d="M38.4965 29.1533C38.3171 29.1533 38.1745 29.1533 38.0319 29.1533C29.9819 29.1533 21.9319 29.1632 13.8819 29.1497C7.40518 29.1388 1.95131 24.7237 0.410438 18.2778C-1.47256 10.401 3.30756 2.48069 10.9787 0.81722C13.664 0.234687 16.3083 0.456303 18.8887 1.45674C19.1065 1.54086 19.4084 1.54991 19.6237 1.46488C27.3018 -1.54909 36.204 2.72402 38.1806 11.6556C38.3933 12.6162 38.4913 13.623 38.4983 14.609C38.5306 19.3271 38.514 24.0462 38.514 28.7652C38.514 28.8702 38.5044 28.9742 38.4965 29.1533ZM23.9059 4.81083C24.4519 5.56161 24.9909 6.23098 25.452 6.95191C26.9806 9.33993 27.7139 11.9848 27.7209 14.8432C27.7296 18.0092 27.7226 21.1742 27.7235 24.3401C27.7235 24.5129 27.7235 24.6848 27.7235 24.8603H33.9605C33.9605 24.6757 33.9605 24.5138 33.9605 24.351C33.9605 21.2909 33.971 18.2308 33.9526 15.1707C33.9483 14.4199 33.9159 13.6583 33.7846 12.9229C33.1398 9.30646 31.2366 6.71039 27.8784 5.35537C26.6131 4.8452 25.291 4.69052 23.905 4.81083H23.9059ZM14.8549 25.2013C14.8715 25.1533 14.8882 25.1045 14.9048 25.0566C12.3122 22.247 10.8894 18.94 10.8439 15.0323C10.7975 11.1273 12.1249 7.77595 14.686 4.83525C14.3658 4.80902 14.1252 4.77012 13.8837 4.77193C11.5973 4.78912 9.55505 5.5209 7.8383 7.09392C5.72781 9.02876 4.73381 11.5118 4.61306 14.3973C4.42406 18.94 6.87055 23.4844 11.9578 24.7137C12.908 24.9435 13.888 25.0421 14.8549 25.2013ZM19.3052 6.60094C16.4947 8.48693 14.5714 12.9844 15.7605 17.6989C16.6933 21.3985 20.1697 24.711 23.1149 24.7002C23.1202 24.6133 23.1315 24.5256 23.1315 24.4369C23.1315 21.1217 23.1333 17.8075 23.1272 14.4923C23.1245 13.2141 22.8752 11.9803 22.4149 10.7963C21.7543 9.09841 20.7472 7.67283 19.306 6.60094H19.3052Z" fill="white"></path><path d="M68.5775 5.37211C67.3998 6.40511 66.3017 7.36756 65.2289 8.30739C64.6392 7.78094 64.1072 7.24364 63.5157 6.78865C61.6756 5.37483 59.5598 4.88908 57.3198 5.06185C52.8249 5.4092 49.5831 8.35262 48.7142 12.9197C47.7613 17.9282 50.1824 22.9992 55.0807 24.4962C58.0093 25.3908 60.8714 25.0217 63.5883 23.5383C64.0188 23.3031 64.2078 23.0245 64.1938 22.4872C64.1518 20.8454 64.1789 19.2009 64.1789 17.5583V17.0228H57.6978V12.5814C57.8571 12.5742 57.9988 12.5615 58.1406 12.5615C61.4796 12.5606 64.8194 12.5687 68.1584 12.5507C68.5837 12.5488 68.6948 12.6773 68.693 13.1097C68.6773 17.0137 68.6782 20.9187 68.693 24.8227C68.6948 25.18 68.5679 25.4152 68.3413 25.6459C66.8057 27.2099 64.941 28.1804 62.8944 28.7612C59.4697 29.7336 56.0274 29.8665 52.6911 28.4355C47.7902 26.3342 44.8581 22.5071 44.0697 17.096C43.4213 12.6438 44.586 8.62579 47.5128 5.25271C49.9374 2.45945 53.0052 0.903618 56.6347 0.585215C60.4453 0.25053 63.8832 1.24825 66.8818 3.73035C67.4689 4.21609 67.9843 4.79501 68.5767 5.37302L68.5775 5.37211Z" fill="white"></path><path d="M141.707 13.6848C141.317 15.5165 140.926 17.3482 140.54 19.1809C139.866 22.383 139.188 25.5851 138.529 28.7908C138.464 29.1056 138.324 29.1599 138.054 29.1581C136.29 29.149 134.526 29.1418 132.762 29.1626C132.386 29.1671 132.231 29.0532 132.145 28.6696C131.305 24.951 130.447 21.2369 129.592 17.5219C128.969 14.8164 128.342 12.1118 127.717 9.40715C127.704 9.35017 127.699 9.29047 127.687 9.20996H132.111C133.176 14.45 134.242 19.6965 135.308 24.942C135.34 24.9474 135.372 24.9537 135.404 24.9592C136.501 19.7155 137.598 14.4718 138.698 9.21177H144.878C145.945 14.4754 147.013 19.7489 148.083 25.0225C148.105 25.0252 148.127 25.027 148.149 25.0297C149.267 19.7643 150.386 14.4989 151.508 9.21358H155.949C155.847 9.67219 155.755 10.1172 155.651 10.5596C154.225 16.5902 152.795 22.62 151.381 28.6533C151.287 29.0514 151.125 29.1699 150.733 29.1644C149.013 29.1409 147.293 29.1382 145.572 29.1662C145.151 29.1726 144.997 29.0396 144.91 28.6208C143.902 23.7082 142.876 18.8 141.854 13.891C141.84 13.8223 141.819 13.7553 141.801 13.6884C141.77 13.6884 141.739 13.6875 141.708 13.6866L141.707 13.6848Z" fill="white"></path><path d="M76.2128 20.1206C76.5182 22.4046 77.6041 24.0771 79.6402 24.8731C82.4376 25.9667 84.8639 25.1897 86.9088 22.9202C87.9256 23.8248 88.9362 24.7239 89.9661 25.6402C89.0289 26.9048 87.8424 27.7804 86.5002 28.4398C82.6292 30.3403 77.8307 29.6112 74.9082 26.6271C72.5177 24.1866 71.6357 21.1826 72.0172 17.7588C72.4696 13.7019 75.1978 10.3189 78.9997 9.26596C82.2293 8.37045 85.2559 8.8562 87.8678 11.1393C89.6362 12.6852 90.5479 14.7503 90.9093 17.0786C91.0379 17.9072 91.0292 18.7574 91.0983 19.5969C91.1324 20.0121 90.9837 20.1315 90.5786 20.1306C85.9857 20.1161 81.3928 20.1215 76.8008 20.1215C76.6276 20.1215 76.4543 20.1215 76.2137 20.1215L76.2128 20.1206ZM76.3887 16.847H86.5352C86.3086 15.312 85.6339 14.1153 84.3022 13.3989C82.5627 12.4627 80.7786 12.3948 79.0119 13.2921C77.5953 14.0113 76.7387 15.2161 76.3878 16.847H76.3887Z" fill="white"></path><path d="M166.945 8.8628C172.59 8.85647 177.004 13.3801 177 19.1693C176.997 24.9096 172.614 29.3989 167.071 29.464C161.237 29.5328 156.925 24.8255 156.913 19.1847C156.901 13.3865 161.298 8.86913 166.944 8.8628H166.945ZM166.956 13.0409C164.489 13.0409 162.517 14.4602 161.672 16.8582C161.233 18.1064 161.161 19.3918 161.451 20.6799C161.953 22.9114 163.233 24.4781 165.392 25.076C167.578 25.6821 169.562 25.18 171.129 23.4107C172.334 22.0503 172.679 20.3742 172.558 18.5868C172.319 15.049 169.769 13.0011 166.957 13.04L166.956 13.0409Z" fill="white"></path><path d="M112.033 29.1263C111.847 29.1381 111.72 29.1525 111.591 29.1525C110.468 29.1543 109.345 29.139 108.223 29.1616C107.843 29.1697 107.724 29.0621 107.726 28.6568C107.741 25.0694 107.757 21.4819 107.716 17.8945C107.708 17.1274 107.59 16.316 107.323 15.6059C106.571 13.6114 105.033 12.8498 102.903 13.0135C101.489 13.122 100.352 13.7887 99.5089 14.9773C99.0688 15.5978 98.8238 16.2509 98.8308 17.0605C98.8658 20.9193 98.8404 24.7781 98.8553 28.6369C98.857 29.0557 98.7424 29.1742 98.3408 29.1643C97.2042 29.1372 96.0667 29.1498 94.9292 29.1589C94.6667 29.1607 94.5293 29.1082 94.5293 28.7898C94.5372 22.3231 94.5363 15.8565 94.538 9.38983C94.538 9.34642 94.5529 9.303 94.5669 9.22611H98.8352V10.9656C99.1283 10.7051 99.333 10.5024 99.5588 10.327C101.014 9.19897 102.696 8.84801 104.464 8.87605C106.309 8.90499 107.993 9.45949 109.413 10.7259C110.873 12.0266 111.622 13.7263 111.905 15.6557C112.01 16.3658 112.025 17.0948 112.028 17.8158C112.039 21.4186 112.033 25.0205 112.033 28.6234V29.1272V29.1263Z" fill="white"></path><path d="M118.596 5.44448C118.168 5.44448 117.806 5.44448 117.444 5.44448C115.563 5.44448 113.682 5.43362 111.802 5.45352C111.408 5.45805 111.312 5.3296 111.318 4.93793C111.34 3.59919 111.326 2.26045 111.326 0.882812H130.44V5.43091H123.179V6.07133C123.179 13.5619 123.179 21.0535 123.179 28.5441C123.179 28.9487 122.981 29.151 122.584 29.151C121.433 29.151 120.28 29.1338 119.129 29.1601C118.716 29.17 118.586 29.0533 118.587 28.611C118.601 22.2954 118.597 15.9807 118.597 9.66513C118.597 8.28116 118.597 6.89719 118.597 5.44357L118.596 5.44448Z" fill="white"></path></g><defs><clipPath id="clip0_826_39511"><rect width="177" height="29" fill="white" transform="translate(0 0.5)"></rect></clipPath></defs></svg>
